<svg width="1056" height="768" viewBox="0 0 792 576" xmlns="http://www.w3.org/2000/svg"><path fill="#fffefe" d="M0 0h792v576H0V0z"/><path fill="#9c0a06" d="M130.34 228.12c4.51-.04 9.02-.09 13.53-.04 1.76 7.53 2.71 15.21 3.87 22.84.61 4.55 1.25 9.17 3.07 13.42 4.51-11.95 7.76-24.36 12.56-36.2 4.49-.08 8.97-.13 13.46.02.16 5.33-.01 10.68-.65 15.98-.7 15.95-1.65 31.89-2.5 47.83-.37 5.08-1.18 10.21-.18 15.27 2.62.2 5.25.34 7.89.31.47-.38 1.42-1.14 1.9-1.52 5.86-17.65 10.87-35.58 16.35-53.35 2.91-8.08 4.51-16.57 7.69-24.57 5.55-.21 11.11-.22 16.66.02 1.43 5.51 1.6 11.22 2.45 16.84 1.45 15.38 4.06 30.63 5.55 46.02 1.09 5.47.76 11.24 2.69 16.52 1.76.28 2.87-.91 3.85-2.14-.15-19.11-.16-38.23-.15-57.35 0-2.44.3-4.88.62-7.3 4.64-.59 9.33-.47 14.01-.46 16.66.08 33.33-.12 49.99.09 6.98.72 13.97.23 20.95-.07 57.03-.01 114.06-.04 171.08.01 7.98.48 15.97.5 23.96.05 21-.13 42.01-.1 63.02-.01 9.99 1.02 19.99-.29 30-.06 15.67-.01 31.33.01 47-.01 2.35-.01 4.7.15 7.04.41.86 8.09.47 16.23.56 24.35 0 24.65-.01 49.3-.01 73.96.04 2.99-.19 5.99-.69 8.95-100.29.31-200.59.04-300.88.13H137c-6.65-.02-13.3.09-19.94-.17-1.09-7.91-.56-15.91-.68-23.87.1-5.25-.35-10.55.52-15.76 1.25-.76 3.36-.85 3.62-2.63 1.24-6.19 1.38-12.55 2.36-18.79 3.04-19.5 4.22-39.25 7.46-58.72z"/><path fill="#facc10" d="M586.51 244.12c1.12-3.61 5.8-1.46 8.58-1.73.25 3.9-1.04 7.7-.75 11.6.52 10.76-2.5 21.25-2.77 31.98.02 6.37-2.81 12.88-.72 19.15 2.04 4.47 9.12.53 10.22 5.69 5.56.38 11.21.7 16.72-.41-4.99-9.24-2.09-20.02-1.07-29.85.52-6.51 4.19-12.9 10.42-15.43 7.28-3.93 17.77-1.11 21.03 6.78 2.2 6.07 1.99 12.83.74 19.09-.12 2.03-2.48 2.27-4.05 2.58-6.8.69-13.7-.5-20.45.87-1.38 4.01-1.38 8.99 1.93 12.08 4.58 3.12 10.56.31 13.32-3.93 2.11.28 5.31-1.02 6.44 1.43.73 2.4-.55 4.67-1.52 6.79 4.2.46 8.48.13 12.64.93 2.4.48 2.47 3.3 2.55 5.26.08 6.35.04 12.72.03 19.08-.16 1.85.11 3.96-1.07 5.55-2.44.9-5.09.94-7.65 1.04-129.35.01-258.7 0-388.05.01-5.24-.04-10.58.43-15.66-1.15-.52-7.49-.01-15.01-.17-22.52.25-2.46-.28-5.88 2.23-7.35 2.56-.95 5.35-.94 8.04-1.18-2.44-4.06-3.95-8.84-3.17-13.61 1.33-9.42.19-20.09 6.53-28 6.44-6.3 18.51-7.52 25-.65 2.89 3.02 3.07 7.47 3.65 11.38-2.21.93-5.03 1.89-7.06.06-2.16-2.69-1.79-7.46-5.59-8.73-5.03-2.21-11.38 1.57-11.79 7.04-.78 9.05-3.49 18.45-.39 27.35 2.38 3.35 7.38 2.86 10.53.95 2.23-1.38 2.98-4.02 3.9-6.31.58-3.35 5.21-3.32 7.39-1.62 1.47 4.46-1.51 8.47-3.4 12.25 6.01.32 12.77 1.91 18.35-.84 1.7-5.76 1.55-11.87 2-17.82 2.38-16.37 2.69-32.97 4.68-49.39 2.67 0 5.34.02 8.01.06.13 8.85-1.02 17.62-1.58 26.44 4.58-3.8 10.42-6.51 16.49-5.08 4.84.46 6.82 5.68 6.76 9.92.03 12.26-3.22 24.39-2.5 36.66 5.09.62 10.69 1.47 15.54-.53 2.15-14.25 2.45-28.76 4.31-43.06.19-2.48 3.7-2.56 5.32-1.39 1.32 2 1.13 4.57 1.57 6.85 3.59-3.95 8.31-8.41 14.09-7.59 2.59.39 2.85 3.82 1.14 5.39-2.17 4.02-7.93 1.94-10.36 5.69-2.7 4.39-5.31 9.09-5.55 14.37-.34 6.78-1.64 13.52-1.21 20.33 7.59.9 15.25.53 22.87.61 7.26-.12 14.55.27 21.76-.85-5.39.42-7.99-4.82-7.8-9.35.14-9-.62-18.44 3.22-26.84 2.71-5.52 13.12-4.98 13.64 1.88.49 7.23.53 14.59-.43 21.8-.86 5.46-3.82 11.88-9.97 12.66 12.5.93 25.13 1.12 37.63.16 1.13-4.8 1.02-9.76 1.58-14.63.54-9.39 1.81-18.71 2.44-28.09-.4-3.2 3.71-3.77 5.96-2.88 2.25.77 1.65 3.54 2.08 5.37 2.87-3.23 6.38-6.42 10.92-6.73 4.8-.99 10.91.45 12.81 5.47.73 4.93-.27 9.88-.48 14.81-.71 8.37-.73 16.78-1.8 25.12.4.43 1.18 1.31 1.58 1.74 7.44.46 14.97.82 22.37-.32.55-1.79 1.01-3.62 1.02-5.49.41-11.11 2.18-22.12 2.54-33.22-3.05-.3-6.12-.41-9.14-.86-2.61-1.34-.96-6.27 2.03-6.13 5.26-.32 10.63-.66 15.83.51 0 9.9-1.63 19.72-1.52 29.61-.42 5.29-1.59 10.54-1 15.87 7.81.68 15.66.43 23.48.06-3.99-7.11-1.87-15.28-1.51-22.93.64-6.15.7-12.93 4.87-17.94 4.69-6.12 13.41-7.53 20.5-5.54 6.51 2.17 9.66 9.89 8.23 16.28-2.44.32-4.9.28-7.27-.4-.53-2.35-.7-4.86-1.86-7.01-2.97-4.27-10.17-3.87-12.97.36-2.53 3.55-2.15 8.14-2.66 12.26-.47 5.7-1.96 11.6-.54 17.27 2.21 3.14 6.59 6.3 10.39 3.72 4.2-1.69 3.22-7.89 7.41-9.49 2.02-.7 5.74-.14 5.51 2.67-.29 3.66-2.24 6.91-2.95 10.49 6.94.58 14 1.03 20.91.06 1.49.08 2.04-1.37 1.95-2.63-.79-10.75 1.65-21.38 1.77-32.12 1.48-7.55 1.74-15.26 1.78-22.94.01-2.99-.07-6.1 1.2-8.87z"/><path fill="#facc10" d="M506.14 243.91c2.41-.17 5.63-.66 6.93 2 2.89 3.76-.59 9.31-5.09 9.1-2.31.21-3.76-1.77-5.25-3.16.24-2.98 1.44-5.71 3.41-7.94zM138.04 245.74c3.53 8.16 4.03 17.15 6.56 25.6 1.37 4.63 1.24 9.88 4.24 13.9 6.96-12.12 9.95-26.03 16.51-38.33.31 1.65 1.02 3.28.88 4.99-1.7 18.4-1.98 36.89-4.07 55.25-9.82 1.27-19.8.63-29.68.39-1.4-3.76-.81-7.78-.37-11.65 2.09-16.71 3.06-33.55 5.93-50.15z"/><path fill="#9c0a06" d="M453.49 276.64c2.37-4.65 7.41-7.48 12.64-6.83 3.46 3.52 2.45 8.69 2.05 13.1-1.06 9.25-1.17 18.58-2.46 27.81-5.16.63-10.38.64-15.51-.18.7-11.33 1.1-22.76 3.28-33.9zM314.02 279.13c1.94-3.89 5.68-7.18 10.05-7.91 2.39-.47 4.74 1.47 5.11 3.8.87 3.99-.14 8.08-.41 12.09-.96 6.61-.97 13.31-1.94 19.91-.14 1.67-1.29 3.35-3 3.68-3.94.83-8.01.47-11.98.05.07-5.71.2-11.42.67-17.12.42-4.83-.14-9.86 1.5-14.5z"/><path fill="#facc10" d="M203.51 284.69c5.64-.38 11.48-.77 16.98.82 1.44 5.36 1.82 10.97 2.3 16.49-.13 1.92.69 5.01-1.83 5.66-5.96.34-11.95.04-17.92.2-2.5-.14-5.32.31-7.48-1.21.19-6.73 2.75-13.16 4.43-19.63.17-1.91 1.92-2.32 3.52-2.33z"/></svg>