<?xml version="1.0" encoding="UTF-8" ?>
<!DOCTYPE svg PUBLIC "-//W3C//DTD SVG 1.1//EN" "http://www.w3.org/Graphics/SVG/1.1/DTD/svg11.dtd">
<svg width="792pt" height="576pt" viewBox="0 0 792 576" version="1.1" xmlns="http://www.w3.org/2000/svg">
<path fill="#ffffff" d=" M 0.00 0.00 L 792.00 0.00 L 792.00 576.00 L 0.00 576.00 L 0.00 0.00 Z" />
<path fill="#9c0605" d=" M 244.17 195.49 C 248.41 195.15 252.67 195.15 256.93 195.18 C 307.95 195.19 358.98 195.18 410.00 195.18 C 418.42 195.27 426.84 194.93 435.25 195.48 C 435.52 198.32 435.76 201.17 435.73 204.03 C 435.72 247.69 435.74 291.35 435.72 335.01 C 435.81 336.25 436.04 337.47 436.39 338.67 C 441.26 338.20 446.31 339.04 451.02 337.45 C 444.86 324.99 444.10 310.73 444.82 297.09 C 446.51 272.42 447.31 247.46 453.54 223.41 C 455.94 215.56 460.26 207.89 467.15 203.16 C 473.45 198.45 481.21 196.17 488.98 195.52 C 499.33 194.76 510.44 195.00 519.63 200.44 C 525.62 203.92 529.66 210.12 531.19 216.81 C 532.97 224.83 533.29 233.17 532.19 241.31 C 525.86 242.07 519.49 241.59 513.16 241.26 C 513.45 232.66 513.24 222.79 506.81 216.24 C 502.08 211.04 494.31 211.02 487.92 212.27 C 482.85 213.19 478.22 216.24 475.52 220.64 C 470.73 228.12 470.48 237.28 469.22 245.80 C 467.32 265.16 466.23 284.59 464.84 303.99 C 464.71 310.01 464.77 316.22 466.88 321.94 C 468.58 326.60 473.17 329.59 477.90 330.47 C 485.70 332.27 494.93 330.82 500.38 324.52 C 506.02 317.27 507.00 307.87 508.11 299.07 C 514.39 298.00 520.83 298.28 527.14 298.97 C 526.01 311.06 524.25 323.56 518.25 334.32 C 517.55 335.57 517.33 336.99 517.06 338.38 C 527.33 338.68 537.66 337.74 547.87 339.08 C 548.18 352.56 548.19 366.06 547.80 379.54 C 537.20 380.34 526.57 379.96 515.96 380.02 C 507.02 380.91 498.03 380.54 489.07 380.55 C 433.73 380.97 378.38 380.75 323.03 380.81 C 296.75 380.62 270.45 381.18 244.18 380.51 C 243.65 349.35 244.08 318.18 243.94 287.01 C 244.08 256.50 243.64 225.99 244.17 195.49 Z" />
<path fill="#facd0e" d=" M 274.63 284.94 C 278.93 282.21 283.69 279.01 289.05 279.97 C 292.71 280.33 295.67 282.65 298.14 285.20 C 303.52 281.71 310.53 278.13 316.89 281.18 C 321.50 283.13 321.85 288.82 322.25 293.11 C 322.09 304.85 320.57 316.53 319.21 328.18 C 319.01 331.31 318.39 334.54 319.26 337.62 C 325.40 339.28 331.82 338.38 338.09 338.60 C 350.35 338.41 362.66 339.14 374.89 337.90 C 374.43 332.61 373.28 327.36 373.71 322.02 C 374.48 312.84 374.34 303.36 377.59 294.60 C 380.16 287.51 387.25 281.85 395.02 282.59 C 399.89 282.23 403.60 285.67 406.95 288.68 C 407.71 286.83 408.48 284.97 409.26 283.12 C 411.69 282.87 414.14 282.95 416.55 283.38 C 416.73 288.31 416.17 293.21 415.55 298.09 C 414.44 311.21 413.04 324.31 412.53 337.46 C 417.66 339.53 423.32 338.43 428.67 339.30 C 429.72 345.13 429.26 351.07 429.35 356.96 C 429.22 362.89 429.75 368.86 428.95 374.77 C 425.31 375.10 421.65 375.33 417.99 375.32 C 365.01 375.31 312.02 375.33 259.03 375.31 C 257.09 375.27 255.12 375.20 253.26 374.62 C 252.38 372.54 252.69 370.20 252.61 368.00 C 252.79 358.23 252.44 348.45 252.83 338.68 C 254.82 338.33 256.83 338.11 258.78 337.59 C 260.20 333.93 259.99 329.90 260.59 326.07 C 262.59 311.17 262.04 295.95 265.25 281.21 C 267.63 280.84 270.05 280.82 272.44 281.18 C 273.14 282.44 273.87 283.70 274.63 284.94 Z" />
<path fill="#9c0605" d=" M 298.62 295.71 C 299.53 290.32 307.51 285.57 311.74 290.34 C 314.04 296.02 311.83 302.25 311.62 308.12 C 310.22 317.95 310.33 327.93 308.58 337.71 C 304.09 338.72 299.46 338.79 294.97 337.82 C 294.90 330.16 296.56 322.64 296.95 315.00 C 297.47 308.57 297.65 302.09 298.62 295.71 Z" />
<path fill="#9c0605" d=" M 273.45 299.11 C 273.62 294.65 276.43 289.97 280.99 288.94 C 283.70 288.23 287.59 288.76 288.36 291.97 C 289.55 298.63 288.09 305.40 287.50 312.06 C 286.39 320.63 286.50 329.32 285.00 337.86 C 280.18 338.72 275.24 338.87 270.47 337.63 C 269.95 324.74 272.52 311.95 273.45 299.11 Z" />
<path fill="#facd0e" d=" M 333.70 300.61 C 343.80 300.58 353.91 300.56 364.02 300.67 C 363.98 303.38 363.84 306.08 363.59 308.78 C 353.40 309.77 343.11 309.25 332.88 309.03 C 332.92 306.21 333.13 303.38 333.70 300.61 Z" />
</svg>
